<svg xmlns="http://www.w3.org/2000/svg" viewBox="0 0 512 512" width="512" height="512">
  <defs>
    <linearGradient id="felt" x1="0" y1="0" x2="0" y2="1">
      <stop offset="0" stop-color="#188a52"/>
      <stop offset="0.55" stop-color="#0f5132"/>
      <stop offset="1" stop-color="#0a3d26"/>
    </linearGradient>
    <linearGradient id="card" x1="0" y1="0" x2="0" y2="1">
      <stop offset="0" stop-color="#ffffff"/>
      <stop offset="1" stop-color="#e9edf1"/>
    </linearGradient>
    <!-- one fanned card: shadow + body + a top-left corner pip -->
    <g id="fan-card">
      <rect x="192" y="240" width="140" height="196" rx="16" fill="#000" opacity="0.25" transform="translate(5 6)"/>
      <rect x="192" y="240" width="140" height="196" rx="16" fill="url(#card)"/>
    </g>
    <path id="heart" d="M0 14c-9-17-33-15-33 5 0 17 24 29 33 40 9-11 33-23 33-40 0-20-24-22-33-5z"/>
    <path id="spade" d="M0-22c-13 22-35 31-35 52 0 12 11 19 23 15-2 8-6 13-11 18h46c-5-5-9-10-11-18 12 4 23-3 23-15 0-21-22-30-35-52z"/>
    <path id="diamond" d="M0-26l22 32-22 32-22-32z"/>
  </defs>

  <rect width="512" height="512" rx="112" fill="url(#felt)"/>

  <!-- faint free-cell / foundation frames along the top -->
  <g fill="none" stroke="#ffffff" stroke-opacity="0.14" stroke-width="6">
    <rect x="70"  y="58" width="60" height="82" rx="12"/>
    <rect x="144" y="58" width="60" height="82" rx="12"/>
    <rect x="308" y="58" width="60" height="82" rx="12"/>
    <rect x="382" y="58" width="60" height="82" rx="12"/>
  </g>

  <!-- left card: hearts (only its top-left corner is exposed) -->
  <g transform="rotate(-19 262 452)">
    <use href="#fan-card" xlink:href="#fan-card"/>
    <use href="#heart" xlink:href="#heart" fill="#e23b4e" transform="translate(224 292) scale(0.82)"/>
  </g>

  <!-- centre card: spades (top-left corner exposed) -->
  <g transform="rotate(0 262 452)">
    <use href="#fan-card" xlink:href="#fan-card"/>
    <use href="#spade" xlink:href="#spade" fill="#1a1f26" transform="translate(226 300) scale(0.82)"/>
  </g>

  <!-- right card: diamonds (fully on top -> a bigger central pip) -->
  <g transform="rotate(19 262 452)">
    <use href="#fan-card" xlink:href="#fan-card"/>
    <use href="#diamond" xlink:href="#diamond" fill="#e23b4e" transform="translate(285 322) scale(1.5)"/>
  </g>
</svg>
